# xmcd
#
# Track frame offsets:
#	150
#	17705
#	31655
#	59607
#	77932
#	95437
#	110652
#	127450
#	152335
#	169257
#	188395
#	202712
#
# Disc length: 2779 seconds
#
# Revision: 17
# Processed by: cddbd v1.5.2PL0 Copyright (c) Steve Scherf et al.
# Submitted via: audiograbber 1.83.01
#
DISCID=950ad90c
DTITLE=Gotthard - Gotthard
DYEAR=1992
DGENRE=Hard Rock
TTITLE0=Standing in the Light
TTITLE1=Downtown
TTITLE2=Firedance
TTITLE3=Hush (Billy Joe Royal)
TTITLE4=Mean Street Rocket
TTITLE5=Get Down
TTITLE6=Take Me
TTITLE7=Angel
TTITLE8=Lonely Heartache
TTITLE9=Hunter
TTITLE10=All I Care For
TTITLE11=That's It (Bonus Track)
EXTD=
EXTT0=
EXTT1=
EXTT2=
EXTT3=
EXTT4=
EXTT5=
EXTT6=
EXTT7=
EXTT8=
EXTT9=
EXTT10=
EXTT11=
PLAYORDER=
